#!OML:ASF H:\Dans Jumps\Project 1\Capture day 1\Session 1\subject.ASF
:FULLY-SPECIFIED
:DEGREES
302
root 0.574102 20.7841 -9.2966 10.5015 -0.0858107 -0.496926
lowerback 0.242996 -0.996481 -1.65961
upperback 3.00738 -1.3471 1.67066
thorax 3.03317 -0.740042 2.61631
lowerneck -7.48202 0.541627 -2.13028
upperneck 26.6169 0.991232 0.486442
head 9.60319 0.295166 0.635893
rclavicle 3.08116e-015 -4.37326e-015
rhumerus -20.1734 -3.2804 -83.6931
rradius 34.4647
rwrist 25.9308
rhand -19.148 -25.7971
rfingers 7.12502
rthumb 7.1623 -55.6559
lclavicle 3.08116e-015 -4.37326e-015
lhumerus -14.6113 -11.6577 87.9382
lradius 28.3063
lwrist 22.4036
lhand -27.3001 -9.38732
lfingers 7.12502
lthumb -0.709924 20.5912
rfemur -18.6802 -4.18216 17.8342
rtibia 38.8277
rfoot 25.1282 -9.64076
rtoes 27.2742
lfemur -20.3878 4.86945 -16.8973
ltibia 35.922
lfoot 29.5769 -2.30592
ltoes 4.13281
303
root 0.574501 20.9402 -9.20148 10.2069 0.00196164 -0.478872
lowerback 0.898322 -1.04212 -1.71921
upperback 3.15989 -1.41488 1.6993
thorax 2.82801 -0.775263 2.68851
lowerneck -7.70633 0.540228 -2.07125
upperneck 26.8182 1.01297 0.378964
head 9.7194 0.297171 0.592934
rclavicle -4.91992e-015 8.74653e-015
rhumerus -20.1651 -3.81613 -83.6839
rradius 34.1228
rwrist 26.3538
rhand -19.1293 -25.78
rfingers 7.12502
rthumb 7.18035 -55.6382
lclavicle -4.91992e-015 8.74653e-015
lhumerus -14.5568 -11.6284 88.0371
lradius 28.1977
lwrist 22.2679
lhand -27.2418 -9.39118
lfingers 7.12502
lthumb -0.653595 20.5876
rfemur -19.4669 -4.0751 17.8862
rtibia 40.1952
rfoot 24.9136 -9.23045
rtoes 27.4768
lfemur -21.1178 5.11622 -17.0367
ltibia 36.4635
lfoot 29.3319 -2.20531
ltoes 4.47908
304
root 0.574912 21.0863 -9.10905 9.82911 0.0626394 -0.447368
lowerback 1.69513 -1.07887 -1.79343
upperback 3.33384 -1.47274 1.72074
thorax 2.56578 -0.805312 2.76559
lowerneck -7.94384 0.544136 -2.00919
upperneck 27.0145 1.047 0.252734
head 9.83692 0.302962 0.544042
rclavicle -4.32357e-015 -1.03368e-014
rhumerus -20.1407 -4.37411 -83.6841
rradius 33.7298
rwrist 26.8129
rhand -19.1247 -25.7335
rfingers 7.12502
rthumb 7.18482 -55.5915
lclavicle -4.32357e-015 -1.03368e-014
lhumerus -14.4802 -11.5149 88.1375
lradius 27.9948
lwrist 22.0002
lhand -27.1988 -9.32702
lfingers 7.12502
lthumb -0.612129 20.6518
rfemur -20.1523 -3.97639 17.9162
rtibia 41.3932
rfoot 24.5053 -8.65457
rtoes 27.3457
lfemur -21.7107 5.42763 -17.2115
ltibia 36.795
lfoot 28.9161 -1.91658
ltoes 4.59708
305
root 0.575235 21.2226 -9.01776 9.41299 0.105028 -0.406893
lowerback 2.57112 -1.11253 -1.884
upperback 3.51136 -1.52846 1.7416
thorax 2.26423 -0.83412 2.85445
lowerneck -8.15666 0.559109 -1.94377
upperneck 27.1905 1.10022 0.108106
head 9.94283 0.31589 0.489749
rclavicle 1.2921e-014 -1.59028e-015
rhumerus -20.108 -4.93659 -83.6884
rradius 33.2878
rwrist 27.2718
rhand -19.1166 -25.6785
rfingers 7.12502
rthumb 7.19256 -55.5363
lclavicle 1.2921e-014 -1.59028e-015
lhumerus -14.3987 -11.3053 88.2446
lradius 27.7032
lwrist 21.6297
lhand -27.1655 -9.20733
lfingers 7.12502
lthumb -0.57992 20.7716
rfemur -20.7638 -3.89105 17.9306
rtibia 42.3693
rfoot 23.8911 -7.90823
rtoes 26.8058
lfemur -22.2084 5.78419 -17.4106
ltibia 36.908
lfoot 28.3537 -1.49961
ltoes 4.54112
306
root 0.57548 21.3494 -8.92641 9.0084 0.141626 -0.36916
lowerback 3.4637 -1.14728 -1.98184
upperback 3.67651 -1.58736 1.76928
thorax 1.94268 -0.864177 2.95671
lowerneck -8.36058 0.586551 -1.86917
upperneck 27.3686 1.17614 -0.0620716
head 10.0484 0.337063 0.427141
rclavicle -1.64991e-014 1.35174e-014
rhumerus -20.0753 -5.48202 -83.6904
rradius 32.808
rwrist 27.6888
rhand -19.1032 -25.6359
rfingers 7.12502
rthumb 7.20555 -55.4933
lclavicle -1.64991e-014 1.35174e-014
lhumerus -14.3155 -11.0133 88.3603
lradius 27.3314
lwrist 21.2091
lhand -27.1195 -9.00399
lfingers 7.12502
lthumb -0.535538 20.9751
rfemur -21.3396 -3.82408 17.9455
rtibia 43.0938
rfoot 23.1022 -7.11528
rtoes 25.9888
lfemur -22.6662 6.15886 -17.6156
ltibia 36.8118
lfoot 27.7125 -1.01295
ltoes 4.41745
307
root 0.576046 21.4664 -8.83362 8.66259 0.179199 -0.342923
lowerback 4.30095 -1.18271 -2.06929
upperback 3.81908 -1.64761 1.80294
thorax 1.63027 -0.89433 3.06012
lowerneck -8.52895 0.618428 -1.80263
upperneck 27.5351 1.25738 -0.225612
head 10.1433 0.360493 0.368446
rclavicle 5.86415e-015 -4.17448e-015
rhumerus -20.0451 -6.01956 -83.6871
rradius 32.2958
rwrist 28.0599
rhand -19.0871 -25.6063
rfingers 7.12502
rthumb 7.22104 -55.4631
lclavicle 5.86415e-015 -4.17448e-015
lhumerus -14.2344 -10.6571 88.4825
lradius 26.8912
lwrist 20.7619
lhand -27.0422 -8.69193
lfingers 7.12502
lthumb -0.460813 21.2873
rfemur -21.921 -3.79151 17.9738
rtibia 43.5599
rfoot 22.1672 -6.40228
rtoes 24.9828
lfemur -23.1392 6.53468 -17.8195
ltibia 36.5291
lfoot 27.0447 -0.489156
ltoes 4.27069
308
root 0.577066 21.5732 -8.73891 8.4148 0.221944 -0.332818
lowerback 5.03943 -1.22054 -2.14
upperback 3.92944 -1.71022 1.84629
thorax 1.34103 -0.925091 3.16387
lowerneck -8.69155 0.656051 -1.73307
upperneck 27.7112 1.34788 -0.394143
head 10.2412 0.387542 0.308357
rclavicle -1.58034e-014 -7.35503e-015
rhumerus -20.0213 -6.52703 -83.6731
rradius 31.7617
rwrist 28.3756
rhand -19.0659 -25.6099
rfingers 7.12502
rthumb 7.24153 -55.466
lclavicle -1.58034e-014 -7.35503e-015
lhumerus -14.1541 -10.2443 88.6135
lradius 26.3918
lwrist 20.3079
lhand -26.9311 -8.33634
lfingers 7.12502
lthumb -0.353495 21.6431
rfemur -22.5503 -3.8036 18.0259
rtibia 43.7794
rfoot 21.1246 -5.84544
rtoes 23.8934
lfemur -23.6782 6.8983 -18.0198
ltibia 36.0887
lfoot 26.3651 0.0470288
ltoes 4.08646
